<svg id="Camada_1" data-name="Camada 1" xmlns="http://www.w3.org/2000/svg" viewBox="0 0 620.85 599.9"><defs><style>.cls-1{fill:#353033;}</style></defs><title>icon-logo-fan-pizza</title><path class="cls-1" d="M620.85,307.63c.31-15.73.62-51.51-2.67-60,0,0-.32,6.7-20.6,25.49q-1.67,1.55-3.44,3l-26.46,20.81c-.23,10.7-2.56,33.3-2.88,36.38a245.82,245.82,0,0,1-94.32,162.29c-68.26,52.19-155.83,62.94-231.72,36.23,0,0-7.7,11.44-29,16.4a51.06,51.06,0,0,1-19,1c-17.16-2.55-30.7-13.68-38.35-29.95,0,0-33.63,5.84-51-14.7,0,0,56.78,76.13,176.46,92.48,80.22,10.95,159.79-8.84,224.33-57.71A298.77,298.77,0,0,0,620.66,315.1h0v-.27c.1-2,.19-4,.25-5.95A8.42,8.42,0,0,0,620.85,307.63Z"/><path class="cls-1" d="M120.94,370.16a15.89,15.89,0,0,0,11.42,1.68h0c.38-.08.76-.18,1.14-.29a15.85,15.85,0,0,0,9.79-7.84,16,16,0,0,0,1.39-12.56,16.49,16.49,0,0,0-19.19-11.49c-.37.08-.74.17-1.11.28a16.44,16.44,0,0,0-3.44,30.22Z"/><path class="cls-1" d="M105.38,391.56c.2-10.89-2.34-19.65-7.56-26.06a35.6,35.6,0,0,0-19.94-12.4,44.4,44.4,0,0,0-19.7,0c-1.52.33-3.06.74-4.59,1.23a47.93,47.93,0,0,0-25.1,18A13.36,13.36,0,0,0,16.54,369a10,10,0,0,0-1.19.32L8,371.67A3.82,3.82,0,0,0,5.3,375.2L0,554.41a3.82,3.82,0,0,0,4.64,3.85,1.89,1.89,0,0,0,.34-.09l24.07-7.66A3.85,3.85,0,0,0,31.71,547l1.59-55.32a36.41,36.41,0,0,0,11.71,4,43.38,43.38,0,0,0,16.54-.49h0c1.48-.32,3-.73,4.48-1.21a53.13,53.13,0,0,0,26-18.53c7.1-9.08,11-20.57,11.53-34.17ZM72.2,448.22a26.2,26.2,0,0,1-4.34,14.49,19.54,19.54,0,0,1-10.4,7.85c-.66.21-1.32.38-2,.53a16.89,16.89,0,0,1-13.38-2.5c-4.69-3-7.23-7.54-7.76-13.77l1.46-48.72a37,37,0,0,1,7.08-17.22c3.62-4.67,7.69-7.57,12.45-8.87.37-.11.74-.2,1.11-.28a13.18,13.18,0,0,1,11.71,2.55c3.68,3,5.42,7.74,5.31,14.62Z"/><path class="cls-1" d="M289.16,432.58c-3.59,2.27-6.25,4.07-8.12,5.52s-4.11,3.26-6.94,5.59a50.56,50.56,0,0,0-6.93,6.73c-1.55,1.89-3.25,4.2-5.07,6.85a35.75,35.75,0,0,0-4.39,8.47,60.59,60.59,0,0,0-2.25,8.73,42.85,42.85,0,0,0-.6,10.31c.49,6.64,2.09,12.27,4.75,16.72a27.6,27.6,0,0,0,10.74,10.42,34.39,34.39,0,0,0,13.85,4A41,41,0,0,0,296,515c.93-.21,1.87-.44,2.79-.71a43.4,43.4,0,0,0,21.8-14.45c5.87-7.12,9.19-16.17,9.88-26.93L333,430.26A154.62,154.62,0,0,0,346,421.32a91.08,91.08,0,0,0,7-6.12,32.24,32.24,0,0,0,4.8,4.59A30.18,30.18,0,0,0,384,425.72c.82-.18,1.65-.39,2.48-.63a37.77,37.77,0,0,0,14.85-8.35,41.24,41.24,0,0,0,7.88-9.6A25.74,25.74,0,0,0,421,412.57a40.66,40.66,0,0,0,16.52-.34c1-.23,2.08-.5,3.12-.8a46.92,46.92,0,0,0,14.92-7.3A54.34,54.34,0,0,0,467.84,391c3.76-5.46,6.82-12.48,9.1-20.87a134.33,134.33,0,0,0,4.14-28.45,3.81,3.81,0,0,0-4.49-3.94l-16.63,3-.15,0a3.83,3.83,0,0,0-3,3.44c-1,13.5-3.52,24.08-7.42,31.46-3.64,6.9-8,11.13-13.07,12.58-.3.09-.59.16-.88.22-3.2.71-4.66-.24-5.57-1.15-1.67-1.66-2.44-4.95-2.22-9.5l4.65-83.49a3.84,3.84,0,0,0-1.44-3.21,3.8,3.8,0,0,0-3.2-.74l-.24.06-5,1.46A27.4,27.4,0,0,0,405,306.74a27.81,27.81,0,0,0-10.88-5.46,34.33,34.33,0,0,0-16-.25c-.78.17-1.57.37-2.35.6a36.88,36.88,0,0,0-17.65,11.27,34.63,34.63,0,0,0-8.46,20.45s-2.84,47-2.84,47A29.21,29.21,0,0,1,341,395.71a66.13,66.13,0,0,1-13.3,12.88,40.51,40.51,0,0,0-10.26-11c7.84-10.1,12.13-20.85,12.75-32,0,0,.24-3.93.24-4,.38-12-4.31-21.47-13.95-28-8.59-5.86-18.66-7.58-29.92-5.1-1.13.25-2.3.54-3.46.88a43.81,43.81,0,0,0-19.47,11.33,28.29,28.29,0,0,0-8.52,19.15l-.56,13.73a3.82,3.82,0,0,0,4.64,3.89l.24-.06L280,371.44a3.82,3.82,0,0,0,2.76-3.54l.3-9.11a6.47,6.47,0,0,1,1.7-3.94,9.21,9.21,0,0,1,4.66-2.87c.29-.09.58-.16.86-.22a8.41,8.41,0,0,1,8,2.07c2.64,2.38,3.69,5.44,3.31,9.65l-.74,8.93a28.32,28.32,0,0,1-6,15.89,44.38,44.38,0,0,0-21.52,2.16c-7.15,2.52-12.32,6.19-15.38,10.91-2.68,4.15-3.66,8.35-2.94,12.51a69,69,0,0,1-4,5.86,66.32,66.32,0,0,1-13.29,12.88,40.71,40.71,0,0,0-10.27-11c7.84-10.1,12.13-20.85,12.75-32,0,0,.24-3.93.24-4,.38-12-4.31-21.47-13.95-28-8.59-5.86-18.65-7.58-29.92-5.1-1.13.25-2.29.54-3.46.88a43.81,43.81,0,0,0-19.47,11.33,28.29,28.29,0,0,0-8.52,19.15l-.56,13.73a3.82,3.82,0,0,0,4.64,3.89l.24-.06L190,395.48a3.82,3.82,0,0,0,2.76-3.55l.3-9.11a6.47,6.47,0,0,1,1.7-3.94,9.21,9.21,0,0,1,4.66-2.87c.29-.09.58-.16.87-.22a8.44,8.44,0,0,1,8,2.07c2.63,2.38,3.68,5.44,3.3,9.66l-.74,8.92a28.25,28.25,0,0,1-6,15.89,44.47,44.47,0,0,0-21.52,2.16c-7.15,2.52-12.32,6.19-15.37,10.91-3.26,5-4,10.12-2.24,15.18.11.31.24.62.38.93-.49,2.83-1.08,5.53-1.78,8a49.82,49.82,0,0,1-5.52,13.4,33.52,33.52,0,0,1-6.52,7.77,17.72,17.72,0,0,1-6.46,3.61c-.31.09-.61.16-.91.23-3.28.72-4.85-.24-5.76-1-1.68-1.46-2.42-3.67-2.26-6.75l4.8-86.35a3.84,3.84,0,0,0-4.64-3.95l-.24.06a34.9,34.9,0,0,0-25.15,31.65l-3,55.92c-.72,13.51,3.24,23.42,11.77,29.43,7.61,5.37,16.61,7,26.77,4.73,1-.22,2.05-.48,3.09-.78a46.3,46.3,0,0,0,14.51-7.18,49.39,49.39,0,0,0,3.91-3.2c-.4.89-.76,1.77-1.06,2.65a60.39,60.39,0,0,0-2.25,8.74,42.77,42.77,0,0,0-.6,10.3c.49,6.64,2.09,12.27,4.75,16.72A27.6,27.6,0,0,0,180.4,536a34.56,34.56,0,0,0,13.85,4,41.5,41.5,0,0,0,11.83-.88c.92-.2,1.86-.44,2.78-.71a43.47,43.47,0,0,0,21.81-14.45c5.86-7.12,9.18-16.17,9.87-26.92l2.53-42.68A154.17,154.17,0,0,0,256,445.35,95.07,95.07,0,0,0,268.15,434a48,48,0,0,0,6.43-9c.65-.11,1.32-.23,2-.38,1-.22,2-.49,3.08-.79A70.17,70.17,0,0,0,298.5,415a20.12,20.12,0,0,1,4.62,9.13c-2.63,1.51-4.67,2.71-6.09,3.57C295.24,428.76,292.6,430.41,289.16,432.58Zm86.74-42.74,2.38-56.19a11.38,11.38,0,0,1,2.26-6.71,9.85,9.85,0,0,1,5.17-3.6l.7-.17c3.21-.71,6.11.2,9.13,2.84,3.35,2.94,5.26,7.79,5.7,14.43l-2.19,38.13c-1.06,6.84-3,12.16-5.7,15.8-2.59,3.47-5.42,5.6-8.41,6.33l-.35.09c-3.45.75-5.15-.43-6.25-1.54C376.49,397.36,375.67,394.21,375.9,389.84ZM211,502.34c-.63,10.08-5.73,12.7-9.51,13.79-.33.09-.65.18-1,.25-3.83.84-5.69-.46-6.76-1.51-2.18-2.12-3.4-5.5-3.64-10a26.77,26.77,0,0,1,1.13-9.05,29.61,29.61,0,0,1,3.65-7.77,42.25,42.25,0,0,1,6.24-7.1,70.08,70.08,0,0,1,8-6.5q1.68-1.16,3.62-2.39Zm-3.91-50.65c-1.76,1.08-4.41,2.73-7.87,4.92s-6.24,4.07-8.11,5.52-4.13,3.27-6.95,5.6c-.62.52-1.22,1-1.78,1.52a83.61,83.61,0,0,0,5-13.05c.77-2.62,1.47-5.42,2.06-8.35l.27-.08A69.81,69.81,0,0,0,208.55,439a20.12,20.12,0,0,1,4.62,9.13C210.55,449.62,208.51,450.82,207.08,451.69Zm95.67-3.64-1.81,30.25c-.63,10.09-5.73,12.71-9.51,13.8l-1,.24c-3.83.84-5.69-.45-6.76-1.5-2.18-2.13-3.4-5.5-3.64-10a26.77,26.77,0,0,1,1.13-9.05,29.3,29.3,0,0,1,3.65-7.77,41.37,41.37,0,0,1,6.24-7.1,70.08,70.08,0,0,1,8-6.5C300.24,449.67,301.45,448.87,302.75,448.05Z"/><path class="cls-1" d="M237.32,194.28a3.83,3.83,0,0,0-4-4.23,33.68,33.68,0,0,0-5.79.75,28.59,28.59,0,0,0-10.69,4.74,24,24,0,0,0-7,7.68A27.89,27.89,0,0,0,199.05,197a34.84,34.84,0,0,0-17.94-.71l-.5.12a37.27,37.27,0,0,0-18.41,10.44,34.8,34.8,0,0,0-9.54,20.08S146,286.33,146,286.33c-1.16,11.37,2.34,20.71,10.41,27.77s17.32,9.26,27.9,6.93l.54-.12a37.77,37.77,0,0,0,15.44-7.78,43,43,0,0,0,8.58-9.51,28.49,28.49,0,0,0,11.59,6.12,39.46,39.46,0,0,0,19.07.32l.62-.14c2-.47,4.38-1.19,6-1.71a47.78,47.78,0,0,0,23.32-16.31l.13-.16a26.58,26.58,0,0,0,1.51-2.21l-3.26-2,3.31,1.92c.07-.11.13-.23.2-.36l.23-.43c1.57-3,4.85-9.27,8.42-21.5a96.84,96.84,0,0,0,2.29-9.64l8.05-43.3c1.59-6.07,3.91-10.95,6.89-14.49,2.82-3.36,5.85-5.44,9-6.18l.18,0c3.8-.83,5.61.46,6.76,1.68,1.88,2,2.61,5.22,2.17,9.55L310.3,249.5c-1,9.41.41,17.1,4.21,22.84A28.25,28.25,0,0,0,330,284a37.59,37.59,0,0,0,19.5.59l.62-.14c11.39-2.67,21.22-9.75,29.22-21.05,7.82-11,12.92-26.78,15.15-46.77a3.82,3.82,0,0,0-4.25-4.22l-16.88,2-.37.06a3.83,3.83,0,0,0-3,3.26c-1.69,13.33-4.73,23.79-9.05,31.09-4,6.82-8.6,10.87-13.58,12l-.19,0c-3.79.83-5.4-.36-6.38-1.5-1.7-2-2.33-5.14-1.85-9.41l5.48-49.65c1.35-11.19-1.94-20-9.77-26.14-7.53-5.92-16.36-7.82-26.26-5.64l-.54.12c-8.77,2-16.29,6.93-22.4,14.54a19.59,19.59,0,0,0-5.87-3.5,17.19,17.19,0,0,0-9.89-.77,18.33,18.33,0,0,0-2.31.68,3.82,3.82,0,0,0-2.51,3.17l-8,72.32a49.17,49.17,0,0,1-4.65,16.37c-.52,1.05-1.06,2.05-1.61,3-4,6.74-8.65,10.77-13.78,12l-.2.05c-3.78.83-5.38-.35-6.26-1.32-1.6-1.76-2.2-5.11-1.74-9.67Zm-37.39,80.58c-1.42,6.82-3.62,12.06-6.55,15.59-2.7,3.25-5.55,5.22-8.49,5.87l-.29.06c-3.75.73-5.48-.58-6.57-1.81-1.77-2-2.44-5.2-2-9.59l5.27-56.31A11.43,11.43,0,0,1,184,222a9.78,9.78,0,0,1,5.39-3.35l.15,0c3.5-.77,6.55.24,9.6,3.18s4.86,8,5,14.74Z"/><path class="cls-1" d="M23.26,334.52c9.93,6,21.42,7.57,34.14,4.77l.84-.19a64,64,0,0,0,15.6-5.85,61.85,61.85,0,0,0,13.94-10.36A53.64,53.64,0,0,0,99,306.17a76.56,76.56,0,0,0,5.85-22.59l4.59-43.07,38.42-8.44a3.83,3.83,0,0,0,3-4.24c-1.92-14.59-14.46-17-20.82-16.21a2.25,2.25,0,0,0-.36.06l-17.51,3.85,4.95-45.6,78-18.3A3.82,3.82,0,0,0,198,147.1c-3.31-15.17-15.93-17.31-22.14-16.33l-.22,0-60.8,13.36-68.59,16a22.07,22.07,0,0,0-6.3,2.45,22.59,22.59,0,0,0-8.08,8.27A21.41,21.41,0,0,0,29,186.11a3.84,3.84,0,0,0,4.58,3l51.33-12.23-4.66,43.26-2,18.22-4.69,43.81c-1.94,19.08-9.39,29.88-22.77,33l-.35.08a19.79,19.79,0,0,1-13.67-1.52A13.75,13.75,0,0,1,31.07,309,16.53,16.53,0,0,0,33.7,279.6a16.43,16.43,0,0,0-12.61-2l-.27.06a18,18,0,0,0-11.23,7.88,28.54,28.54,0,0,0-4.6,12,40.24,40.24,0,0,0,.13,11.71C6.88,319.86,13,328.36,23.26,334.52Z"/><path class="cls-1" d="M494.41,150.58c-25.26-5.34-49.79,11-58.4,38.77-.59,1.55-2.7,7.89-2.45,19,.4,16.69,7.61,30.34,15.28,44.85l43.27,79.59a5.45,5.45,0,0,0,7.77,2,2.8,2.8,0,0,0,.35-.25l71.82-55.31c12.83-10.13,24.94-19.7,32.06-34.8,4.71-10,5.35-16.67,5.43-18.33,3.38-28.91-12.45-53.75-37.72-59.08-15.79-3.34-31.66,1.69-43.24,13.28C522.68,164.94,510.21,153.92,494.41,150.58Z"/><path class="cls-1" d="M172.45,103.86A247.43,247.43,0,0,1,365.56,58.05c49.62,8.3,103.86,58.56,103.86,58.56s14.26,14.74,17.76,20c0,0,32.12,3.56,41.75,25.88a62.9,62.9,0,0,1,11.41-7.34,44.56,44.56,0,0,1,12.77-3.74c-1.59-7.1-7.86-18.64-13.73-28.42A154.28,154.28,0,0,0,528,105.18h0C507.4,77,478.68,53.26,478.68,53.26,438.43,18.85,383.8,6.64,383.8,6.64A299.94,299.94,0,0,0,139.61,61a296.84,296.84,0,0,0-58.4,58.78s-12.66,20.43-12.66,24.45l78.89-18.73C156.25,116.44,162.16,111.65,172.45,103.86Z"/></svg>